<svg id="Layer_1" data-name="Layer 1" xmlns="http://www.w3.org/2000/svg" xmlns:xlink="http://www.w3.org/1999/xlink" viewBox="0 0 200.17 242.56"><defs><style>.cls-1,.cls-8{fill:none;}.cls-2{clip-path:url(#clip-path);}.cls-3{fill:#e5282a;}.cls-4{fill:#eb5b28;}.cls-5{fill:#04a99d;}.cls-6{fill:#1173ba;}.cls-7{fill:#343434;}.cls-8{stroke:#2d2d2d;stroke-miterlimit:10;stroke-width:4px;}</style><clipPath id="clip-path" transform="translate(438.4 -77.49)"><circle class="cls-1" cx="-338.42" cy="197.37" r="98.59"/></clipPath></defs><title>logo</title><g class="cls-2"><rect class="cls-3" y="0.49" width="99.98" height="123.65"/><rect class="cls-4" y="124.13" width="99.98" height="118.43"/><rect class="cls-5" x="99.98" width="100.18" height="124.13"/><rect class="cls-6" x="99.98" y="124.13" width="100.18" height="117.49"/></g><path class="cls-7" d="M-356.6,151.67h2.25l4.52,10.61,4.43-10.61h2.26V168h-2.39V157.8h-0.05l-3.3,7.82h-2l-3.3-7.82h0V168h-2.39V151.67Z" transform="translate(438.4 -77.49)"/><path class="cls-7" d="M-327.93,166.92h0a1.9,1.9,0,0,1-1,.87,4.5,4.5,0,0,1-1.79.29,4,4,0,0,1-2.9-1,3.26,3.26,0,0,1-1.07-2.51,3.34,3.34,0,0,1,.93-2.42,3.64,3.64,0,0,1,2.72-1h3.12v-1.22q0-1.54-2.3-1.49a4,4,0,0,0-1.33.18,1.64,1.64,0,0,0-.8.72l-1.77-1.4a4.32,4.32,0,0,1,3.79-1.69A5.87,5.87,0,0,1-327,157a3.42,3.42,0,0,1,1.29,3V168h-2.25v-1Zm0-3.89h-2.71q-2,0-2,1.4a1.25,1.25,0,0,0,.51,1,2.32,2.32,0,0,0,1.61.46,3.86,3.86,0,0,0,2-.35,2,2,0,0,0,.53-1.68V163Z" transform="translate(438.4 -77.49)"/><path class="cls-7" d="M-317.68,151.67h2.25V161.8h0l4.32-5.44h2.7l-3.87,4.52,4.4,7.07h-2.84l-3-5.41-1.78,2.08V168h-2.25V151.67Z" transform="translate(438.4 -77.49)"/><path class="cls-7" d="M-299.69,163a2.76,2.76,0,0,0,.78,2.12,2.55,2.55,0,0,0,1.9.74,3.32,3.32,0,0,0,2.46-1.13l1.63,1.44a5.22,5.22,0,0,1-4,1.87,5.65,5.65,0,0,1-1.73-.27,4.13,4.13,0,0,1-.82-0.39,3.94,3.94,0,0,1-.79-0.52,4.61,4.61,0,0,1-1.16-1.81,7.33,7.33,0,0,1-.49-2.9,8.31,8.31,0,0,1,.42-2.86,5,5,0,0,1,1.08-1.83,4,4,0,0,1,1.5-1,4.7,4.7,0,0,1,1.62-.3,4.58,4.58,0,0,1,3.25,1.31,4.83,4.83,0,0,1,1.37,3.6V163h-7Zm4.75-1.92a3,3,0,0,0-.7-2.05,2.24,2.24,0,0,0-1.67-.66,2.24,2.24,0,0,0-1.67.66,3.18,3.18,0,0,0-.7,2.05h4.75Z" transform="translate(438.4 -77.49)"/><path class="cls-7" d="M-350.1,188.69l-4.75-9.58h2.53l3.34,7.22,3.34-7.22h2.53l-4.75,9.58v6.7h-2.25v-6.7Z" transform="translate(438.4 -77.49)"/><path class="cls-7" d="M-334.06,189.58a10.48,10.48,0,0,1,.29-2.82,4.1,4.1,0,0,1,.93-1.62,4.25,4.25,0,0,1,1.3-1,4.69,4.69,0,0,1,2.11-.45,4.77,4.77,0,0,1,2.15.46,4.07,4.07,0,0,1,1.25,1,3.68,3.68,0,0,1,.95,1.62,11.25,11.25,0,0,1,.27,2.81,10.93,10.93,0,0,1-.27,2.79,4,4,0,0,1-1,1.66,3.6,3.6,0,0,1-.53.5,2.46,2.46,0,0,1-.72.48,4.38,4.38,0,0,1-2.15.5,4.28,4.28,0,0,1-2.11-.5,4.28,4.28,0,0,1-1.3-1,4.51,4.51,0,0,1-.93-1.66A10.18,10.18,0,0,1-334.06,189.58Zm7,0a10.78,10.78,0,0,0-.11-1.81,2.17,2.17,0,0,0-.44-1,1.67,1.67,0,0,0-.74-0.62,2.38,2.38,0,0,0-1.08-.24,2.42,2.42,0,0,0-1.06.24,2,2,0,0,0-.76.62,2.76,2.76,0,0,0-.42,1,8.85,8.85,0,0,0-.13,1.79,8.59,8.59,0,0,0,.13,1.77,3,3,0,0,0,.42,1,2.79,2.79,0,0,0,.76.59,2.32,2.32,0,0,0,1.06.25,2.28,2.28,0,0,0,1.08-.25,2.13,2.13,0,0,0,.74-0.59,2.35,2.35,0,0,0,.44-1A10.11,10.11,0,0,0-327.06,189.6Z" transform="translate(438.4 -77.49)"/><path class="cls-7" d="M-316.81,183.8h2.25v6.91a2.53,2.53,0,0,0,.64,1.83,2.11,2.11,0,0,0,1.6.66,2.08,2.08,0,0,0,1.59-.66,2.55,2.55,0,0,0,.63-1.83V183.8h2.25v11.59h-2.25v-1.24h0a3.56,3.56,0,0,1-2.91,1.37,3.74,3.74,0,0,1-2.52-1,3.67,3.67,0,0,1-1.24-3V183.8Z" transform="translate(438.4 -77.49)"/><path class="cls-7" d="M-299.27,183.8H-297V185h0a3.58,3.58,0,0,1,2.92-1.37,3.59,3.59,0,0,1,2.36.89l-1.65,2a2.32,2.32,0,0,0-1.48-.58,2.09,2.09,0,0,0-1.48.58,2.31,2.31,0,0,0-.71,1.84v7h-2.25V183.8Z" transform="translate(438.4 -77.49)"/><path class="cls-7" d="M-354.49,206.55H-352l3.57,12.4h0l3.58-12.4h2.53l-5.21,16.28h-1.86Z" transform="translate(438.4 -77.49)"/><path class="cls-7" d="M-333.14,217a10.48,10.48,0,0,1,.29-2.82,4.1,4.1,0,0,1,.93-1.62,4.25,4.25,0,0,1,1.3-1,4.69,4.69,0,0,1,2.11-.45,4.77,4.77,0,0,1,2.15.46,4.07,4.07,0,0,1,1.25,1,3.68,3.68,0,0,1,.95,1.62,11.25,11.25,0,0,1,.27,2.81,10.93,10.93,0,0,1-.27,2.79,4,4,0,0,1-1,1.66,3.6,3.6,0,0,1-.53.5,2.48,2.48,0,0,1-.72.48,4.39,4.39,0,0,1-2.15.5,4.29,4.29,0,0,1-2.11-.5,4.3,4.3,0,0,1-1.3-1,4.51,4.51,0,0,1-.93-1.66A10.18,10.18,0,0,1-333.14,217Zm7,0a10.78,10.78,0,0,0-.11-1.81,2.17,2.17,0,0,0-.44-1,1.67,1.67,0,0,0-.74-0.62,2.38,2.38,0,0,0-1.08-.24,2.42,2.42,0,0,0-1.06.24,2,2,0,0,0-.76.62,2.76,2.76,0,0,0-.42,1,8.85,8.85,0,0,0-.13,1.79,8.59,8.59,0,0,0,.13,1.77,3,3,0,0,0,.42,1,2.79,2.79,0,0,0,.76.59,2.32,2.32,0,0,0,1.06.25,2.28,2.28,0,0,0,1.08-.25,2.13,2.13,0,0,0,.74-0.59,2.35,2.35,0,0,0,.44-1A10.11,10.11,0,0,0-326.14,217Z" transform="translate(438.4 -77.49)"/><path class="cls-7" d="M-313.89,207.71h2.25v3.53H-310V213h-1.64v6.76a0.71,0.71,0,0,0,.8.86H-310v2.19h-1.18a2.62,2.62,0,0,1-1.94-.76,2.73,2.73,0,0,1-.78-2.1V213H-315v-1.79h1.13v-3.53Z" transform="translate(438.4 -77.49)"/><path class="cls-7" d="M-298.84,217.91a2.76,2.76,0,0,0,.78,2.12,2.55,2.55,0,0,0,1.9.74,3.32,3.32,0,0,0,2.46-1.13l1.63,1.44a5.22,5.22,0,0,1-4,1.87,5.68,5.68,0,0,1-1.73-.27,4.13,4.13,0,0,1-.82-0.39,3.94,3.94,0,0,1-.79-0.52,4.61,4.61,0,0,1-1.16-1.81,7.33,7.33,0,0,1-.49-2.9,8.31,8.31,0,0,1,.42-2.86,5,5,0,0,1,1.08-1.83,4,4,0,0,1,1.5-1,4.7,4.7,0,0,1,1.62-.3,4.58,4.58,0,0,1,3.25,1.31,4.83,4.83,0,0,1,1.37,3.6v1.92h-7Zm4.75-1.92a3,3,0,0,0-.7-2.05,2.24,2.24,0,0,0-1.67-.66,2.24,2.24,0,0,0-1.67.66,3.18,3.18,0,0,0-.7,2.05h4.75Z" transform="translate(438.4 -77.49)"/><path class="cls-7" d="M-354.08,234h2.39v10.5a3.41,3.41,0,0,0,.93,2.54,3,3,0,0,0,2.29.92,3.11,3.11,0,0,0,2.31-.92,3.46,3.46,0,0,0,.91-2.54V234h2.39v10.76a5.53,5.53,0,0,1-1.61,4.08,5.54,5.54,0,0,1-4,1.57,5.52,5.52,0,0,1-4-1.57,5.34,5.34,0,0,1-1.64-4.07V234Z" transform="translate(438.4 -77.49)"/><path class="cls-7" d="M-332.45,238.68h2.25v1.21a3.83,3.83,0,0,1,2.9-1.35,3.46,3.46,0,0,1,3,1.52,3.1,3.1,0,0,1,.64,1.44,18.93,18.93,0,0,1,.16,3,18.61,18.61,0,0,1-.16,2.95,3.25,3.25,0,0,1-.64,1.46,3.41,3.41,0,0,1-1.22,1.07,3.82,3.82,0,0,1-1.79.43,3.06,3.06,0,0,1-1.55-.39,4.91,4.91,0,0,1-1.35-1V255h-2.25V238.68Zm4.47,9.4a2.23,2.23,0,0,0,1.27-.31,1.78,1.78,0,0,0,.66-0.83,4.46,4.46,0,0,0,.29-1.17q0-.63,0-1.29t0-1.36a4.2,4.2,0,0,0-.29-1.17,1.65,1.65,0,0,0-.66-0.83,2.45,2.45,0,0,0-1.27-.28,2,2,0,0,0-1.2.32,1.89,1.89,0,0,0-.68.85,4.41,4.41,0,0,0-.27,1.14q-0.06.65-.06,1.31a11.83,11.83,0,0,0,.06,1.23,4.44,4.44,0,0,0,.27,1.18,1.89,1.89,0,0,0,.68.85A1.94,1.94,0,0,0-328,248.08Z" transform="translate(438.4 -77.49)"/><circle class="cls-8" cx="99.75" cy="120.15" r="91.23"/></svg>