<?xml version="1.0" encoding="utf-8"?>
<!-- Generator: Adobe Illustrator 21.0.0, SVG Export Plug-In . SVG Version: 6.00 Build 0)  -->
<svg version="1.1" id="Layer_1" xmlns="http://www.w3.org/2000/svg" xmlns:xlink="http://www.w3.org/1999/xlink" x="0px" y="0px"
	 viewBox="0 0 197.2 197.2" style="enable-background:new 0 0 197.2 197.2;" xml:space="preserve">
<style type="text/css">
	.st0{clip-path:url(#SVGID_2_);}
	.st1{fill:#E5282A;}
	.st2{fill:#EB5B28;}
	.st3{fill:#04A99D;}
	.st4{fill:#1173BA;}
	.st5{fill:#343434;}
	.st6{fill:none;stroke:#2D2D2D;stroke-width:4;stroke-miterlimit:10;}
</style>
<title>logo</title>
<g>
	<defs>
		<circle id="SVGID_1_" cx="98.6" cy="98.6" r="98.6"/>
	</defs>
	<clipPath id="SVGID_2_">
		<use xlink:href="#SVGID_1_"  style="overflow:visible;"/>
	</clipPath>
	<g class="st0">
		<rect x="-1.4" y="-20.8" class="st1" width="100" height="123.7"/>
		<rect x="-1.4" y="102.8" class="st2" width="100" height="118.4"/>
		<rect x="98.6" y="-21.3" class="st3" width="100.2" height="124.1"/>
		<rect x="98.6" y="102.8" class="st4" width="100.2" height="117.5"/>
	</g>
</g>
<path class="st5" d="M80.4,52.9h2.3l4.5,10.6l4.4-10.6h2.3v16.3h-2.4V59h0l-3.3,7.8h-2L82.8,59l0,0v10.2h-2.4L80.4,52.9L80.4,52.9z"
	/>
<path class="st5" d="M109.1,68.1L109.1,68.1c-0.2,0.4-0.6,0.7-1,0.9c-0.6,0.2-1.2,0.3-1.8,0.3c-1.1,0.1-2.1-0.3-2.9-1
	c-0.7-0.6-1.1-1.6-1.1-2.5c0-0.9,0.3-1.8,0.9-2.4c0.7-0.7,1.7-1.1,2.7-1h3.1v-1.2c0-1-0.8-1.5-2.3-1.5c-0.5,0-0.9,0-1.3,0.2
	c-0.3,0.1-0.6,0.4-0.8,0.7l-1.8-1.4c0.9-1.2,2.3-1.8,3.8-1.7c1.2-0.1,2.3,0.2,3.3,0.8c0.9,0.7,1.4,1.8,1.3,3v8h-2.3L109.1,68.1
	L109.1,68.1z M109.1,64.3h-2.7c-1.3,0-2,0.5-2,1.4c0,0.4,0.2,0.8,0.5,1c0.5,0.3,1,0.5,1.6,0.5c0.7,0.1,1.4-0.1,2-0.4
	c0.4-0.4,0.6-1.1,0.5-1.7L109.1,64.3L109.1,64.3z"/>
<path class="st5" d="M119.3,52.9h2.3V63l0,0l4.3-5.4h2.7l-3.9,4.5l4.4,7.1h-2.8l-3-5.4l-1.8,2.1v3.4h-2.3L119.3,52.9L119.3,52.9z"/>
<path class="st5" d="M137.3,64.2c-0.1,0.8,0.2,1.6,0.8,2.1c0.5,0.5,1.2,0.8,1.9,0.7c0.9,0,1.8-0.4,2.5-1.1l1.6,1.4
	c-1,1.2-2.5,1.9-4,1.9c-0.6,0-1.2-0.1-1.7-0.3c-0.3-0.1-0.6-0.2-0.8-0.4c-0.3-0.1-0.5-0.3-0.8-0.5c-0.5-0.5-0.9-1.1-1.2-1.8
	c-0.4-0.9-0.5-1.9-0.5-2.9c0-1,0.1-1.9,0.4-2.9c0.2-0.7,0.6-1.3,1.1-1.8c0.4-0.4,0.9-0.8,1.5-1c0.5-0.2,1.1-0.3,1.6-0.3
	c1.2,0,2.4,0.5,3.3,1.3c0.9,1,1.4,2.3,1.4,3.6v1.9H137.3L137.3,64.2z M142.1,62.3c0-0.7-0.2-1.5-0.7-2.1c-0.4-0.4-1-0.7-1.7-0.7
	c-0.6,0-1.2,0.2-1.7,0.7c-0.5,0.6-0.7,1.3-0.7,2.1H142.1L142.1,62.3z"/>
<path class="st5" d="M86.9,89.9l-4.8-9.6h2.5l3.3,7.2l3.3-7.2h2.5l-4.8,9.6v6.7h-2.3L86.9,89.9L86.9,89.9z"/>
<path class="st5" d="M103,90.8c0-0.9,0.1-1.9,0.3-2.8c0.2-0.6,0.5-1.2,0.9-1.6c0.4-0.4,0.8-0.8,1.3-1c0.7-0.3,1.4-0.5,2.1-0.4
	c0.7,0,1.5,0.1,2.1,0.5c0.5,0.2,0.9,0.6,1.3,1c0.5,0.4,0.8,1,1,1.6c0.2,0.9,0.3,1.9,0.3,2.8c0,0.9-0.1,1.9-0.3,2.8
	c-0.2,0.6-0.5,1.2-1,1.7c-0.2,0.2-0.3,0.4-0.5,0.5c-0.2,0.2-0.5,0.4-0.7,0.5c-0.7,0.3-1.4,0.5-2.1,0.5c-0.7,0-1.5-0.2-2.1-0.5
	c-0.5-0.2-0.9-0.6-1.3-1c-0.4-0.5-0.7-1-0.9-1.7C103,92.7,102.9,91.7,103,90.8z M110,90.8c0-0.6,0-1.2-0.1-1.8
	c-0.1-0.4-0.2-0.7-0.4-1c-0.2-0.3-0.4-0.5-0.7-0.6c-0.3-0.2-0.7-0.2-1.1-0.2c-0.4,0-0.7,0.1-1.1,0.2c-0.3,0.1-0.6,0.4-0.8,0.6
	c-0.2,0.3-0.3,0.6-0.4,1c-0.1,0.6-0.1,1.2-0.1,1.8c0,0.6,0,1.2,0.1,1.8c0.1,0.4,0.2,0.7,0.4,1c0.2,0.2,0.5,0.4,0.8,0.6
	c0.3,0.2,0.7,0.3,1.1,0.3c0.4,0,0.7-0.1,1.1-0.3c0.3-0.1,0.5-0.3,0.7-0.6c0.2-0.3,0.4-0.6,0.4-1C109.9,92,110,91.4,110,90.8
	L110,90.8z"/>
<path class="st5" d="M120.2,85h2.3v6.9c0,0.7,0.2,1.3,0.6,1.8c0.4,0.4,1,0.7,1.6,0.7c0.6,0,1.2-0.2,1.6-0.7c0.4-0.5,0.7-1.2,0.6-1.8
	V85h2.3v11.6h-2.3v-1.2l0,0c-0.7,0.9-1.8,1.4-2.9,1.4c-0.9,0-1.8-0.4-2.5-1c-0.9-0.8-1.3-1.9-1.2-3L120.2,85L120.2,85z"/>
<path class="st5" d="M137.7,85h2.3v1.2l0,0c0.7-0.9,1.8-1.4,2.9-1.4c0.9,0,1.7,0.3,2.4,0.9l-1.6,2c-0.4-0.4-0.9-0.6-1.5-0.6
	c-0.6,0-1.1,0.2-1.5,0.6c-0.5,0.5-0.8,1.2-0.7,1.8v7h-2.3L137.7,85L137.7,85z"/>
<path class="st5" d="M82.5,107.8H85l3.6,12.4l0,0l3.6-12.4h2.5l-5.2,16.3h-1.9L82.5,107.8z"/>
<path class="st5" d="M103.9,118.2c0-0.9,0.1-1.9,0.3-2.8c0.2-0.6,0.5-1.2,0.9-1.6c0.4-0.4,0.8-0.8,1.3-1c0.7-0.3,1.4-0.5,2.1-0.4
	c0.7,0,1.5,0.1,2.1,0.5c0.5,0.2,0.9,0.6,1.3,1c0.5,0.4,0.8,1,1,1.6c0.2,0.9,0.3,1.9,0.3,2.8c0,0.9-0.1,1.9-0.3,2.8
	c-0.2,0.6-0.5,1.2-1,1.7c-0.2,0.2-0.3,0.4-0.5,0.5c-0.2,0.2-0.5,0.4-0.7,0.5c-0.7,0.3-1.4,0.5-2.1,0.5c-0.7,0-1.5-0.2-2.1-0.5
	c-0.5-0.2-0.9-0.6-1.3-1c-0.4-0.5-0.7-1-0.9-1.7C103.9,120.1,103.8,119.1,103.9,118.2z M110.9,118.2c0-0.6,0-1.2-0.1-1.8
	c-0.1-0.4-0.2-0.7-0.4-1c-0.2-0.3-0.4-0.5-0.7-0.6c-0.3-0.2-0.7-0.2-1.1-0.2c-0.4,0-0.7,0.1-1.1,0.2c-0.3,0.1-0.6,0.4-0.8,0.6
	c-0.2,0.3-0.3,0.6-0.4,1c-0.1,0.6-0.1,1.2-0.1,1.8c0,0.6,0,1.2,0.1,1.8c0.1,0.4,0.2,0.7,0.4,1c0.2,0.2,0.5,0.4,0.8,0.6
	c0.3,0.2,0.7,0.3,1.1,0.3c0.4,0,0.7-0.1,1.1-0.3c0.3-0.1,0.5-0.3,0.7-0.6c0.2-0.3,0.4-0.6,0.4-1
	C110.8,119.4,110.9,118.8,110.9,118.2z"/>
<path class="st5" d="M123.1,108.9h2.3v3.5h1.6v1.8h-1.6v6.8c-0.1,0.4,0.2,0.8,0.5,0.9c0.1,0,0.2,0,0.3,0h0.8v2.2h-1.2
	c-0.7,0-1.4-0.2-1.9-0.8c-0.5-0.6-0.8-1.3-0.8-2.1v-6.9H122v-1.8h1.1L123.1,108.9L123.1,108.9z"/>
<path class="st5" d="M138.2,119.1c-0.1,0.8,0.2,1.6,0.8,2.1c0.5,0.5,1.2,0.8,1.9,0.7c0.9,0,1.8-0.4,2.5-1.1l1.6,1.4
	c-1,1.2-2.5,1.9-4,1.9c-0.6,0-1.2-0.1-1.7-0.3c-0.3-0.1-0.6-0.2-0.8-0.4c-0.3-0.1-0.5-0.3-0.8-0.5c-0.5-0.5-0.9-1.1-1.2-1.8
	c-0.4-0.9-0.5-1.9-0.5-2.9c0-1,0.1-1.9,0.4-2.9c0.2-0.7,0.6-1.3,1.1-1.8c0.4-0.4,0.9-0.8,1.5-1c0.5-0.2,1.1-0.3,1.6-0.3
	c1.2,0,2.4,0.5,3.3,1.3c0.9,1,1.4,2.3,1.4,3.6v1.9L138.2,119.1L138.2,119.1z M142.9,117.2c0-0.7-0.2-1.5-0.7-2.1
	c-0.4-0.4-1-0.7-1.7-0.7c-0.6,0-1.2,0.2-1.7,0.7c-0.5,0.6-0.7,1.3-0.7,2.1H142.9L142.9,117.2z"/>
<path class="st5" d="M82.9,135.2h2.4v10.5c-0.1,0.9,0.3,1.9,0.9,2.5c0.6,0.6,1.4,1,2.3,0.9c0.9,0,1.7-0.3,2.3-0.9
	c0.6-0.7,1-1.6,0.9-2.5v-10.5h2.4V146c0,1.5-0.5,3-1.6,4.1c-1.1,1-2.5,1.6-4,1.6c-1.5,0-2.9-0.5-4-1.6c-1.1-1.1-1.7-2.5-1.6-4.1
	L82.9,135.2L82.9,135.2z"/>
<path class="st5" d="M104.6,139.9h2.3v1.2c0.7-0.9,1.8-1.3,2.9-1.4c1.2,0,2.3,0.5,3,1.5c0.3,0.4,0.6,0.9,0.6,1.4c0.1,1,0.2,2,0.2,3
	c0,1,0,2-0.2,2.9c-0.1,0.5-0.3,1-0.6,1.5c-0.3,0.4-0.7,0.8-1.2,1.1c-0.6,0.3-1.2,0.4-1.8,0.4c-0.5,0-1.1-0.1-1.5-0.4
	c-0.5-0.3-1-0.6-1.4-1v6h-2.3L104.6,139.9L104.6,139.9z M109,149.3c0.4,0,0.9-0.1,1.3-0.3c0.3-0.2,0.5-0.5,0.7-0.8
	c0.1-0.4,0.2-0.8,0.3-1.2c0-0.4,0-0.9,0-1.3c0-0.4,0-0.9,0-1.4c0-0.4-0.1-0.8-0.3-1.2c-0.1-0.3-0.4-0.6-0.7-0.8
	c-0.4-0.2-0.8-0.3-1.3-0.3c-0.4,0-0.8,0.1-1.2,0.3c-0.3,0.2-0.5,0.5-0.7,0.9c-0.1,0.4-0.2,0.7-0.3,1.1c0,0.4-0.1,0.9-0.1,1.3
	c0,0.4,0,0.8,0.1,1.2c0,0.4,0.1,0.8,0.3,1.2c0.1,0.3,0.4,0.6,0.7,0.9C108.2,149.2,108.6,149.3,109,149.3L109,149.3z"/>
<circle class="st6" cx="98.4" cy="98.9" r="91.2"/>
</svg>
